<?xml version="1.0" encoding="UTF-8"?>
<svg id="Layer_1" data-name="Layer 1" xmlns="http://www.w3.org/2000/svg" viewBox="0 0 990 990">
  <defs>
    <style>
      .cls-1 {
        fill: #fff;
      }

      .cls-2 {
        fill: #cfe9e7;
      }

      .cls-3 {
        fill: #059283;
      }

      .cls-4 {
        fill: #feffff;
      }

      .cls-5 {
        fill: #08998b;
      }

      .cls-6 {
        fill: #a6c0bc;
      }

      .cls-7 {
        fill: #71a49e;
      }

      .cls-8 {
        fill: #84afab;
      }

      .cls-9 {
        fill: #85ada9;
      }

      .cls-10 {
        fill: #73a8a2;
      }

      .cls-11 {
        fill: #f8f9fa;
      }

      .cls-12 {
        fill: #fefefe;
      }
    </style>
  </defs>
  <path class="cls-5" d="M.37,527.98v-65.95c3.49-3.6,1.74-8.14,2.2-12.29-.22-3.35,.73-6.96-2.2-9.69v-17.59c7.25-9.75,4.03-21.28,5.01-31.96,7.52-81.34,46.77-148.73,94.88-211.37C161.35,99.62,242.28,47.36,336.66,15.09c21.04-7.2,42.99-8.2,64.8-10.22,7.23-.67,14.75,.52,21.01-4.5h17.59c2.73,2.92,6.35,1.98,9.69,2.2,4.15-.46,8.69,1.29,12.29-2.2h65.95c5.86,3.41,11.72,3.41,17.59,0h8.79c31.15,8.69,64.17,4.04,95.27,14.47,88.14,29.55,162.65,78.84,223.7,149.13,46.35,53.36,79.77,113.44,100.91,180.8,9.84,31.36,10.76,63.82,11.85,95.8,2.52,74.14,7.72,149.38-18.6,220.68-58.29,157.96-168.73,262.69-329.19,313.89-32.25,10.29-66.43,10.21-99.87,11.9-51.32,2.6-102.97,1.89-153.84-4.98-74.38-10.06-138.84-44.69-197.78-89.67-75.79-57.84-129.88-132.14-164.68-220.8-11.33-28.87-15.64-58.89-17.33-89.5-.44-8.02-.35-16.05-4.44-23.33v-13.19c3.41-5.86,3.41-11.72,0-17.59Z"/>
  <path class="cls-1" d="M.37,558.76c7.63,4.31,6.61,12.29,8.01,19.16,38.71,191.03,149.11,321.67,334.04,383,161.82,53.67,314.55,25.9,449.81-77.12,126.13-96.06,189.89-226.48,193.05-385.75,2.23-112.36-32.92-212.69-99.49-301.93-37.29-49.98-83.34-90.34-137.74-122.82-56.08-33.49-114.71-56.09-178.76-66.33-5-.8-12.39,.94-14.92-6.6C694.32,.37,834.29,.6,974.25,0c13.12-.06,15.77,2.65,15.75,15.76-.46,319.5-.46,638.99,0,958.49,.02,13.11-2.64,15.77-15.75,15.75-319.5-.46-638.99-.46-958.49,0-13.11,.02-15.82-2.63-15.76-15.75,.6-138.49,.37-276.99,.37-415.49Z"/>
  <path class="cls-1" d="M422.46,.37c-2.28,8.67-9.76,7.2-15.99,8.22C207.86,40.89,41.03,207.72,8.58,406.47c-1.01,6.21,.48,13.71-8.21,15.99C.37,286.51,.58,150.57,.03,14.63-.02,2.46,2.46-.02,14.63,.03,150.57,.58,286.52,.37,422.46,.37Z"/>
  <path class="cls-8" d="M545.57,.37c-5.86,7.52-11.72,3.86-17.59,0h17.59Z"/>
  <path class="cls-9" d="M.37,527.98c3.69,5.86,7.63,11.72,0,17.59v-17.59Z"/>
  <path class="cls-7" d="M462.03,.37c-3.93,3.47-8.6,4.3-13.64,3.81-3.2-1.66-3.05-2.93,.45-3.81h13.19Z"/>
  <path class="cls-10" d="M4.12,448.37c.5,5.04-.18,9.75-3.75,13.66v-13.19c.83-3.49,2.08-3.65,3.75-.47Z"/>
  <path class="cls-6" d="M448.84,.37c-.1,1.28-.25,2.55-.45,3.81-3.47,.23-6.9,.38-8.35-3.81h8.79Z"/>
  <path class="cls-6" d="M4.12,448.37c-1.27,0-2.52,.16-3.75,.47v-8.79c4.18,1.45,4.04,4.85,3.75,8.32Z"/>
  <path class="cls-11" d="M476.17,462.56c6.17,7.92,14.88,4.26,22.37,4.31,53.19,.34,106.39,.04,159.58,.38,5.69,.04,12.75-3.52,17.16,3.56,.19,.31-.43,1.27-.86,1.77-.46,.55-1.13,.91-1.7,1.36-54.68-1.89-109.38-.37-166.93-1.11-.06,0,2.83,4.27,2.21,1.4-.18-.83,.33-1.3,1.53-1.3,45.99,.19,91.98,0,137.97,.1,6.46,.01,13.48-1.12,16.93,6.67-76.72,54.55-153.36,109.22-230.2,163.6-61.44,43.48-123.12,86.61-184.71,129.87-2.84,1.99-5.24,5.26-13.93,2.18,34.47-75.36,68.84-150.49,103.2-225.61,21.96-17.62,44.49-34.4,67.69-50.45,19.95-13.79,41.73-24.66,60.83-39.69,3.43-.45,6.54,.08,8.87,2.95Z"/>
  <path class="cls-11" d="M476.17,462.56c-1.89,1.31-3.79,2.62-5.68,3.93-22.6,9.88-46.27,12.09-70.58,10-10.01-.86-19.03-2.95-21.69-14.61,24.16-55.06,48.25-110.14,72.51-165.15,6.73-15.26,13.92-30.32,20.91-45.47,2.28-1.77,4.86-2.6,7.75-2.48,86.77,0,173.53-.06,260.3,.09,9.34,.02,19.05-1.76,27.81,3.42,.89,1.07,1.78,2.15,2.67,3.22-98,69.02-196,138.03-293.99,207.05Z"/>
  <path class="cls-12" d="M378.22,461.89c30.37,9.23,61.55,2.41,92.27,4.6-39.07,27.94-78.12,55.92-117.24,83.78-4.71,3.36-9.94,7.67-14.47-.52,10.38-30.53,24.87-59.21,39.44-87.87Z"/>
  <path class="cls-2" d="M475.88,251.7c-1.42-.1-2.83-.25-4.24-.43-.43-1.25-.62-2.54-.58-3.87,4.08-4.49,9.51-2.93,14.43-2.94,93.43-.09,186.86-.08,280.3-.04,4.32,0,8.82-.66,12.66,2.22-.43,5.13-3.4,7.89-8.28,8.87,0,0-1.83,.04-1.83,.04l-1.79-.38c-7.63-3.84-15.8-1.88-23.69-1.9-81.03-.17-162.06-.06-243.09-.17-7.96-.01-16.06,1.37-23.88-1.41Z"/>
  <path class="cls-3" d="M778.45,246.64c-102.46,.25-204.93,.51-307.39,.76,7.6-5.71,16.5-5.19,25.26-5.19,85.53-.02,171.06-.02,256.59,0,8.75,0,17.64-.57,25.54,4.43Z"/>
  <path class="cls-4" d="M664.43,479.71c-16.15-7.03-33.23-4.25-49.95-4.38-43.05-.34-86.11-.11-129.14-2.3,62.47-.14,124.95-6.06,187.39,.91-2.77,1.92-5.53,3.85-8.3,5.77Z"/>
  <path class="cls-1" d="M475.88,251.7c92.15-.22,184.3-.45,276.44-.63,5.09,0,10.35-.18,14.23,4.11-89.06,.07-178.11,.13-267.15,.19-8.03,0-16.11,.29-23.53-3.66Z"/>
</svg>