<?xml version="1.0" encoding="utf-8"?>
<!-- Generator: Adobe Illustrator 27.5.0, SVG Export Plug-In . SVG Version: 6.00 Build 0)  -->
<svg version="1.1" xmlns="http://www.w3.org/2000/svg" xmlns:xlink="http://www.w3.org/1999/xlink" x="0px" y="0px"
	 viewBox="0 0 1122 1122" style="enable-background:new 0 0 1122 1122;" xml:space="preserve">
<g id="Bg">
	<g>
		<g>
			<rect style="fill:#FFFFFF;" width="1122" height="1122"/>
		</g>
	</g>
</g>
<g id="Object">
	<g>
		<path style="fill:#616E7D;" d="M901.773,654.281V282.279v-13.932H220.221v13.932v372.002c0,6.518,5.29,11.816,11.832,11.816
			h275.03L373.344,888.202c-6.693,11.12-3.104,25.548,8.007,32.224c11.106,6.657,25.528,3.117,32.216-7.995l137.17-227.818v215.713
			c0,12.957,10.506,23.47,23.476,23.47c12.975,0,23.482-10.512,23.482-23.47V687.043l131.124,225.094
			c4.357,7.483,12.232,11.659,20.311,11.659c4.006,0,8.073-1.019,11.789-3.195c11.202-6.521,14.997-20.898,8.467-32.109
			l-129.55-222.395h250.113C896.484,666.097,901.773,660.798,901.773,654.281z M872.966,639.532h-622.49V296.846h622.49V639.532z"/>
		<path style="fill:#FFFFFF;" d="M250.475,639.532h622.49V296.846h-622.49V639.532z M530.013,617.611H279.658V367.504h250.355
			V617.611z M743.53,617.611H544.508v-19.736H743.53V617.611z M842.1,579.217H544.508v-19.73H842.1V579.217z M842.1,540.823H544.508
			v-19.724H842.1V540.823z M842.342,502.422H544.751v-19.739h297.592V502.422z M842.342,464.028H544.751v-19.736h297.592V464.028z
			 M842.342,425.634H544.751v-19.732h297.592V425.634z M842.342,387.236H544.751v-19.732h297.592V387.236z M698.733,312.497h154.902
			v32.578H698.733V312.497z M267.838,312.497h421.393v32.578H267.838V312.497z"/>
		<rect x="279.658" y="367.504" style="fill:#82BFAB;" width="250.355" height="250.107"/>
		<rect x="267.838" y="312.497" style="fill:#AAD4C8;" width="421.393" height="32.578"/>
		<rect x="698.733" y="312.497" style="fill:#AAD4C8;" width="154.902" height="32.578"/>
		<rect x="193.682" y="234.736" style="fill:#82BFAB;" width="734.635" height="13.886"/>
		<path style="fill:#AAD4C8;" d="M193.682,261.314c0,3.883,3.341,7.033,7.462,7.033h19.076h681.553h19.082
			c4.122,0,7.462-3.15,7.462-7.033v-12.691H193.682V261.314z"/>
		<path style="fill:#616E7D;" d="M201.145,198.203c-4.121,0-7.462,3.15-7.462,7.038v29.495h734.635v-29.495
			c0-3.888-3.34-7.038-7.462-7.038H201.145z"/>
		<rect x="544.751" y="367.504" style="fill:#AAD4C8;" width="297.592" height="19.732"/>
		<rect x="544.751" y="405.901" style="fill:#AAD4C8;" width="297.592" height="19.732"/>
		<rect x="544.751" y="444.292" style="fill:#AAD4C8;" width="297.592" height="19.736"/>
		<rect x="544.751" y="482.683" style="fill:#AAD4C8;" width="297.592" height="19.739"/>
		<rect x="544.508" y="521.099" style="fill:#AAD4C8;" width="297.592" height="19.724"/>
		<rect x="544.508" y="559.487" style="fill:#AAD4C8;" width="297.592" height="19.73"/>
		<rect x="544.508" y="597.875" style="fill:#AAD4C8;" width="199.022" height="19.736"/>
	</g>
</g>
</svg>
